<?xml version="1.0" encoding="UTF-8"?>
<!DOCTYPE svg PUBLIC "-//W3C//DTD SVG 1.1//EN" "http://www.w3.org/Graphics/SVG/1.1/DTD/svg11.dtd">
<!-- Creator: CorelDRAW 2017 -->
<svg xmlns="http://www.w3.org/2000/svg" xml:space="preserve" width="200mm" height="46.1994mm" version="1.1" style="shape-rendering:geometricPrecision; text-rendering:geometricPrecision; image-rendering:optimizeQuality; fill-rule:evenodd; clip-rule:evenodd"
viewBox="0 0 20000 4620"
 xmlns:xlink="http://www.w3.org/1999/xlink">
 <defs>
  <style type="text/css">
   <![CDATA[
    .fil1 {fill:white}
    .fil2 {fill:#007BFF;fill-rule:nonzero}
    .fil0 {fill:white;fill-rule:nonzero}
   ]]>
  </style>
 </defs>
 <g id="Camada_x0020_1">
  <metadata id="CorelCorpID_0Corel-Layer"/>
  <g id="_2562807555760">
   <path class="fil0" d="M1678 4620c-344,0 -601,-82 -771,-248 -169,-165 -254,-427 -254,-786l0 -632c0,-171 -38,-300 -115,-387 -76,-86 -203,-129 -381,-129l-157 0 0 -469 157 0c89,0 166,-9 229,-29 64,-19 115,-48 155,-88 40,-40 69,-91 86,-153 18,-62 26,-137 26,-224l0 -438c0,-172 20,-322 59,-451 39,-129 100,-238 184,-324 82,-87 189,-152 318,-195 128,-44 283,-66 465,-66l209 0 0 469 -157 0c-80,0 -151,9 -216,29 -64,19 -119,50 -166,93 -47,42 -82,99 -107,170 -25,71 -37,158 -37,263l0 436c0,124 -10,230 -31,319 -20,88 -53,161 -95,220 -43,59 -99,105 -165,137 -66,32 -144,55 -234,68 178,20 309,89 396,208 86,119 129,301 129,546l0 632c0,108 13,197 37,269 25,71 60,129 107,172 47,43 102,74 166,93 65,18 136,27 216,27l157 0 0 469 -209 0z"/>
   <path class="fil0" d="M18322 0c345,0 602,82 771,248 169,165 254,427 254,789l0 418c0,171 37,299 113,385 76,86 202,128 380,128l160 0 0 469 -160 0c-89,0 -166,9 -229,29 -64,19 -115,48 -154,88 -38,40 -67,91 -84,153 -18,62 -26,137 -26,223l0 655c0,172 -20,321 -59,450 -39,128 -99,236 -183,322 -83,87 -189,152 -319,195 -129,44 -284,66 -465,66l-209 0 0 -469 159 0c80,0 151,-9 215,-27 64,-19 119,-49 165,-93 47,-44 82,-101 107,-172 25,-71 37,-158 37,-263l0 -648c0,-124 10,-231 31,-320 20,-89 52,-163 94,-222 42,-59 97,-104 163,-135 66,-32 144,-54 234,-68 -178,-21 -309,-91 -394,-210 -86,-119 -128,-301 -128,-546l0 -416c0,-108 -13,-198 -37,-270 -25,-72 -60,-130 -107,-173 -46,-43 -101,-74 -165,-93 -64,-18 -135,-27 -215,-27l-159 0 0 -469 209 0z"/>
   <polygon class="fil1" points="12993,3260 12724,3260 13357,1360 13597,1360 "/>
   <path class="fil2" d="M3167 3260l-292 0 -282 -607c-21,-47 -43,-85 -66,-116 -22,-30 -46,-55 -72,-72 -26,-18 -54,-31 -84,-39 -31,-7 -65,-11 -103,-11l-122 0 0 845 -259 0 0 -1899 509 0c111,0 205,12 285,36 79,24 145,58 195,102 51,44 88,96 112,158 24,62 36,129 36,204 0,59 -9,115 -26,168 -17,53 -43,101 -78,144 -34,43 -77,80 -128,112 -51,31 -110,55 -175,70 53,18 98,51 135,96 38,46 75,107 115,184l300 625zm9396 -962c0,166 -20,309 -59,430 -39,121 -92,221 -158,299 -66,79 -144,137 -233,175 -89,38 -183,57 -282,57 -119,0 -222,-21 -310,-64 -88,-43 -161,-105 -219,-186 -58,-81 -101,-179 -129,-296 -28,-116 -42,-248 -42,-394 0,-164 19,-306 58,-427 39,-121 91,-221 158,-299 66,-79 144,-137 233,-175 88,-38 182,-57 281,-57 119,0 222,22 310,65 88,43 162,105 220,186 58,81 102,179 131,295 28,116 43,247 43,392zm-252 18c0,-109 -8,-208 -25,-298 -17,-90 -44,-167 -82,-233 -38,-65 -86,-115 -145,-152 -59,-36 -131,-54 -214,-54 -81,0 -151,19 -208,57 -58,38 -106,90 -144,155 -37,66 -65,142 -83,231 -18,88 -27,181 -27,280 0,110 9,209 26,299 17,90 44,167 82,232 37,64 85,114 143,151 59,36 130,54 212,54 81,0 151,-19 209,-57 58,-38 107,-90 145,-155 38,-66 66,-142 84,-230 18,-88 27,-181 27,-281zm-1396 -27c0,91 -7,178 -21,261 -14,83 -37,161 -68,232 -31,72 -71,137 -121,195 -50,59 -110,109 -182,150 -72,42 -155,74 -250,97 -95,23 -203,34 -324,34l-407 0 0 -1899 490 0c297,0 518,76 664,229 146,153 219,386 219,700zm-271 18c0,-134 -12,-249 -38,-341 -25,-93 -64,-168 -115,-226 -52,-57 -116,-99 -193,-124 -77,-26 -169,-39 -273,-39l-223 0 0 1459 193 0c433,0 649,-243 649,-729zm-2596 952l292 0 282 -607c21,-47 43,-85 66,-116 22,-30 46,-55 72,-72 26,-18 54,-31 84,-39 31,-7 65,-11 103,-11l122 0 0 845 259 0 0 -1899 -509 0c-111,0 -205,12 -285,36 -79,24 -145,58 -195,102 -51,44 -88,96 -112,158 -24,62 -36,129 -36,204 0,59 9,115 26,168 17,53 43,101 78,144 34,43 77,80 128,112 51,31 110,55 175,70 -53,18 -98,51 -135,96 -38,46 -75,107 -115,184l-300 625zm414 -1378c0,-102 32,-178 95,-228 64,-50 153,-75 268,-75l244 0 0 628 -209 0c-61,0 -116,-7 -165,-21 -49,-14 -91,-35 -125,-63 -34,-27 -61,-62 -80,-102 -19,-40 -28,-86 -28,-139zm-628 1378l-282 0 -131 -414 -794 0 -131 414 -269 0 631 -1899 355 0 622 1899zm-487 -646l-322 -1016 -323 1016 646 0zm-1334 553c-149,62 -304,93 -467,93 -262,0 -463,-78 -603,-235 -140,-156 -211,-388 -211,-695 0,-148 19,-283 58,-403 39,-120 94,-222 166,-305 72,-84 159,-149 261,-194 102,-46 216,-68 343,-68 86,0 166,7 240,22 74,15 144,37 212,68l0 247c-67,-37 -137,-65 -209,-84 -72,-19 -151,-29 -236,-29 -87,0 -166,16 -236,49 -71,32 -131,80 -180,142 -49,62 -87,137 -114,227 -27,89 -40,191 -40,305 0,240 49,421 146,543 97,122 241,183 429,183 79,0 155,-9 228,-28 73,-18 143,-44 210,-77l0 238zm-2194 -1589l-438 0 0 -217 1137 0 0 217 -438 0 0 1461 438 0 0 220 -1137 0 0 -220 438 0 0 -1461zm-1066 304c0,-102 -32,-178 -95,-228 -64,-50 -153,-75 -268,-75l-244 0 0 628 209 0c61,0 116,-7 165,-21 49,-14 91,-35 125,-63 34,-27 61,-62 80,-102 19,-40 28,-86 28,-139z"/>
   <path class="fil0" d="M14931 3260l-282 0 -131 -414 -794 0 -131 414 -269 0 630 -1899 355 0 622 1899zm3182 -568c0,91 -17,172 -53,242 -35,70 -84,129 -149,178 -65,49 -142,85 -234,111 -91,25 -193,38 -305,38l-491 0 0 -1899 537 0c418,0 627,154 627,462 0,103 -24,191 -72,265 -48,73 -127,128 -236,164 51,9 99,26 145,49 45,23 85,54 120,90 34,37 62,80 82,130 20,51 30,107 30,170zm-327 -834c0,-39 -6,-75 -17,-110 -11,-35 -32,-64 -61,-89 -29,-25 -68,-45 -117,-59 -49,-14 -111,-22 -186,-22l-265 0 0 595 256 0c59,0 112,-6 159,-19 48,-13 89,-32 123,-59 34,-26 61,-59 79,-98 19,-39 28,-86 28,-140zm68 843c0,-49 -10,-92 -31,-131 -20,-39 -50,-72 -89,-98 -39,-27 -86,-48 -141,-62 -56,-14 -119,-22 -189,-22l-265 0 0 655 273 0c149,0 259,-28 332,-83 73,-56 109,-142 109,-259zm-1201 559l-253 0 -39 -1187 -16 -452 -88 263 -280 757 -179 0 -267 -728 -88 -292 -6 472 -34 1167 -244 0 94 -1899 307 0 255 716 82 242 80 -242 268 -716 316 0 93 1899zm-2209 -646l-322 -1017 -323 1017 646 0z"/>
  </g>
 </g>
</svg>
